Coordinates
version=1
nRows=24
nColumns=22
inDegrees=yes

Units are S.I. units (second, meters, Newtons, ...)
If the header above contains a line with 'inDegrees', this indicates whether rotational values are in degrees (yes) or radians (no).

endheader
time	pelvis_tilt	pelvis_list	pelvis_rotation	pelvis_tx	pelvis_ty	pelvis_tz	hip_flexion_r	hip_adduction_r	hip_rotation_r	knee_angle_r	ankle_angle_r	subtalar_angle_r	hip_flexion_l	hip_adduction_l	hip_rotation_l	knee_angle_l	ankle_angle_l	subtalar_angle_l	lumbar_extension	lumbar_bending	lumbar_rotation
      0.01000000	     -2.51769100	      4.53823144	    176.31869618	     -1.40398935	      1.02749312	     -0.03046876	      2.22445069	      5.92815545	     -0.38095333	    -16.12224754	      9.51029623	     -1.66897004	     -0.28680440	     -1.94182153	     -8.06575351	    -12.81103853	     11.91198463	     -3.38028457	    -13.07874051	      3.60577157	      3.79906714
      0.02000000	     -2.50942160	      4.53211473	    176.32934828	     -1.40394115	      1.02749334	     -0.03068517	      2.21747517	      5.93586136	     -0.39070290	    -16.08772885	      9.50082127	     -1.67189939	     -0.28534742	     -1.94985520	     -8.06289573	    -12.78587993	     11.89489577	     -3.37617208	    -13.05136584	      3.60068989	      3.77687337
      0.03000000	     -2.51189731	      4.52511708	    176.33448527	     -1.40382530	      1.02750853	     -0.03097491	      2.21677002	      5.94718616	     -0.39385308	    -16.08118628	      9.49931442	     -1.67255407	     -0.28322705	     -1.96129028	     -8.06135048	    -12.78002638	     11.89114866	     -3.37545457	    -13.04433128	      3.58590983	      3.77105729
      0.04000000	     -2.48670863	      4.51357542	    176.37841408	     -1.40373845	      1.02750959	     -0.03122638	      2.21884781	      5.95530745	     -0.42785794	    -16.02304426	      9.46141676	     -1.69769671	     -0.25028969	     -1.96871913	     -8.00311231	    -12.76546424	     11.82720101	     -3.35708404	    -12.99063465	      3.58329857	      3.69529017
      0.05000000	     -2.47555441	      4.50190973	    176.39320264	     -1.40361383	      1.02752655	     -0.03156331	      2.21904841	      5.96499058	     -0.45023116	    -15.98645861	      9.45699727	     -1.70761286	     -0.23120605	     -1.97975908	     -7.99894515	    -12.75679247	     11.81333620	     -3.35182049	    -12.95816983	      3.56789651	      3.67160431
      0.06000000	     -2.42668954	      4.48967095	    176.43643388	     -1.40339128	      1.02749190	     -0.03187781	      2.28382306	      5.97766355	     -0.50385529	    -15.98210099	      9.41846087	     -1.75386678	     -0.14558653	     -1.99396214	     -7.92855233	    -12.77854725	     11.77146819	     -3.32603604	    -12.89335879	      3.56249387	      3.60451845
      0.07000000	     -2.41147514	      4.47318826	    176.45396600	     -1.40320630	      1.02751670	     -0.03225612	      2.29099103	      5.98707477	     -0.51151077	    -15.94291319	      9.41304872	     -1.76324563	     -0.10260038	     -2.00577370	     -7.93070220	    -12.79839245	     11.74351852	     -3.32046188	    -12.86093921	      3.54152344	      3.57768370
      0.08000000	     -2.32966939	      4.45628195	    176.49123811	     -1.40292683	      1.02743038	     -0.03262033	      2.40946995	      5.99917839	     -0.56813310	    -15.96611483	      9.38440326	     -1.80942995	      0.03625668	     -2.02294376	     -7.87313801	    -12.84655416	     11.72054117	     -3.28677331	    -12.75897094	      3.53209669	      3.51570574
      0.09000000	     -2.32058078	      4.43901376	    176.51501054	     -1.40271088	      1.02747047	     -0.03303112	      2.41878674	      6.01161278	     -0.57222525	    -15.94043448	      9.36812403	     -1.81459717	      0.08219994	     -2.03700227	     -7.87018251	    -12.87921109	     11.67813529	     -3.27948540	    -12.73435620	      3.51011265	      3.48095660
      0.10000000	     -2.24918507	      4.42228138	    176.56879708	     -1.40245142	      1.02740601	     -0.03341016	      2.51812060	      6.02421710	     -0.65251073	    -15.94929551	      9.33330624	     -1.84663637	      0.20749662	     -2.05533159	     -7.80142606	    -12.91957143	     11.64920058	     -3.23929988	    -12.63848001	      3.50232063	      3.40748681
      0.11000000	     -2.25016443	      4.40147192	    176.60093896	     -1.40219733	      1.02744630	     -0.03385304	      2.53109853	      6.03531402	     -0.65443021	    -15.94757626	      9.32598870	     -1.85492279	      0.25525210	     -2.06885774	     -7.78751261	    -12.97075928	     11.62489183	     -3.23020046	    -12.63080508	      3.47411372	      3.38340860
      0.12000000	     -2.17853490	      4.37953125	    176.66995919	     -1.40193644	      1.02736187	     -0.03427038	      2.63405379	      6.04532933	     -0.75151549	    -15.96306330	      9.31201317	     -1.91104001	      0.39229429	     -2.08624539	     -7.70797981	    -13.03027021	     11.61553333	     -3.17164815	    -12.53089803	      3.45631674	      3.31042584
      0.13000000	     -2.18906599	      4.35944233	    176.71341614	     -1.40170828	      1.02740560	     -0.03475696	      2.63307594	      6.05993726	     -0.76242922	    -15.95800187	      9.30067838	     -1.91850027	      0.42625821	     -2.10359992	     -7.69258328	    -13.07540031	     11.58688885	     -3.16359263	    -12.52708682	      3.42564899	      3.29400259
      0.14000000	     -2.17692868	      4.34200517	    176.80111546	     -1.40145957	      1.02740151	     -0.03520514	      2.66242138	      6.07417730	     -0.86551208	    -15.95766646	      9.27928682	     -1.96117228	      0.49444582	     -2.12534211	     -7.61023541	    -13.12438001	     11.55907353	     -3.12095147	    -12.49552940	      3.40710716	      3.20900262
      0.15000000	     -2.18165173	      4.31985870	    176.87139325	     -1.40118352	      1.02740797	     -0.03569921	      2.67917238	      6.08626583	     -0.93111533	    -15.96719992	      9.27745234	     -2.00588437	      0.54499193	     -2.14234986	     -7.54478547	    -13.17745966	     11.55021991	     -3.08375078	    -12.48796746	      3.37650182	      3.17303440
      0.16000000	     -2.20287170	      4.29911525	    176.91409140	     -1.40089653	      1.02743522	     -0.03625047	      2.67659433	      6.10304417	     -0.94645300	    -15.97431966	      9.27405084	     -2.01659775	      0.56782626	     -2.16083651	     -7.51333327	    -13.21825411	     11.53771694	     -3.07474962	    -12.49906136	      3.34114601	      3.18790654
      0.17000000	     -2.22916388	      4.27760824	    177.00518487	     -1.40057114	      1.02745875	     -0.03674366	      2.67539419	      6.11248397	     -1.05985303	    -15.98613587	      9.27227686	     -2.07297568	      0.59897258	     -2.17846564	     -7.42490707	    -13.26770855	     11.51904824	     -3.02829708	    -12.51937100	      3.31569566	      3.11865466
      0.18000000	     -2.25979152	      4.25446965	    177.07115278	     -1.40021987	      1.02748421	     -0.03729006	      2.67155571	      6.12526059	     -1.11767335	    -16.00082631	      9.27303064	     -2.12227808	      0.61672743	     -2.19377088	     -7.35472475	    -13.30437245	     11.50853471	     -2.99113176	    -12.54476917	      3.28217257	      3.10261427
      0.19000000	     -2.28933020	      4.23262401	    177.11117587	     -1.39984922	      1.02750749	     -0.03790479	      2.66986280	      6.14378159	     -1.13196597	    -16.01678602	      9.27228970	     -2.13317385	      0.63515246	     -2.21406296	     -7.31782866	    -13.34604680	     11.49541128	     -2.98303811	    -12.56977338	      3.24374686	      3.12513573
      0.20000000	     -2.33272354	      4.20680967	    177.19741896	     -1.39947520	      1.02754306	     -0.03847027	      2.65851934	      6.15177218	     -1.24088355	    -16.03950319	      9.28416813	     -2.18780598	      0.64269337	     -2.22843614	     -7.22590895	    -13.38139169	     11.47335854	     -2.94365668	    -12.60613596	      3.20894440	      3.07884393
      0.21000000	     -2.36410329	      4.18272265	    177.24176093	     -1.39909324	      1.02756571	     -0.03913133	      2.65677062	      6.17163354	     -1.25223128	    -16.05818619	      9.28404506	     -2.20112763	      0.65945873	     -2.24886807	     -7.18104122	    -13.42139270	     11.45974840	     -2.93471769	    -12.62798445	      3.16807597	      3.10548642
      0.22000000	     -2.40507652	      4.14863166	    177.33616616	     -1.39871795	      1.02759817	     -0.03974148	      2.64587117	      6.17524725	     -1.36225089	    -16.07631286	      9.29786285	     -2.28976848	      0.66860898	     -2.25599342	     -7.06515579	    -13.45134106	     11.43448286	     -2.88130656	    -12.65459034	      3.12382185	      3.05617260
      0.23000000	     -2.43907692	      4.12462890	    177.37876211	     -1.39832820	      1.02762543	     -0.04046132	      2.64797146	      6.19894272	     -1.37372983	    -16.10769261	      9.30034876	     -2.30330979	      0.68524425	     -2.28051207	     -7.02670481	    -13.49544237	     11.41592199	     -2.87410494	    -12.67313725	      3.08219636	      3.08499848
      0.24000000	     -2.47356752	      4.08742286	    177.46454365	     -1.39792334	      1.02764748	     -0.04113708	      2.65741970	      6.20332895	     -1.48423495	    -16.14840947	      9.32848857	     -2.38832756	      0.71039491	     -2.28935349	     -6.92647954	    -13.54068550	     11.37988883	     -2.83137862	    -12.68951642	      3.03374336	      3.04833794
